{"title":"Lady.Sonia.Cumming.Hard.With.Holly.XXXmegathor.avi","uid":10628614,"size":314175121,"categoryP":"porn","categoryS":"movies","magnet":"?xt=urn:btih:7ba6d9e84e8635c2c0b758f6d7fc40edc53f1ec2&amp;dn=Lady.Sonia.Cumming.Hard.With.Holly.XXXmegathor.avi&amp;tr=udp%3A%2F%2Ftracker.openbittorrent.com%3A80&amp;tr=udp%3A%2F%2Fopen.demonii.com%3A1337&amp;tr=udp%3A%2F%2Ftracker.coppersurfer.tk%3A6969&amp;tr=udp%3A%2F%2Fexodus.desync.com%3A6969","seeders":1,"leechers":0,"uploader":"XXXmegathor","files":1,"time":1406278742,"description":"Lady.Sonia.Cumming.Hard.With.Holly.XXXmegathor\n\nSCREENIES &lt;a href=&quot;\nhttp://xxxtrapics.com/image/RJ&quot; rel=&quot;nofollow&quot; target=&quot;_NEW&quot;&gt;\nhttp://xxxtrapics.com/image/RJ&lt;/a&gt;\n\n\nDuration : 19mn 58s\nBit rate mode : Variable\nBit rate : 2 001 Kbps\nWidth : 720 pixels\nHeight : 404 pixels\nDisplay aspect ratio : 16:9\nFrame rate mode : Constant\nFrame rate : 25.000 fps\nColor space : YUV\nChroma subsampling : 4:2:0\nBit depth : 8 bits\nScan type : Progressive\nBits/(Pixel*Frame) : 0.275\nStream size : 286 MiB (95%)\nLanguage : English\nEncoded date : UTC 2012-02-09 02:38:05\nTagged date : UTC 2012-02-09 02:38:05\n\nAudio\nID : 2\nFormat : AAC\nFormat/Info : Advanced Audio Codec\nFormat profile : LC\nCodec ID : 40\nDuration : 19mn 58s\nBit rate mode : Variable\nBit rate : 92.9 Kbps\nMaximum bit rate : 96.0 Kbps\nChannel(s) : 2 channels\nChannel positions : Front: L R\nSampling rate : 48.0 KHz\nCompression mode : Lossy\nStream size : 13.3 MiB (4%)\nLanguage : English\nEncoded date : UTC 2012-02-09 02:38:05\nTagged date : UTC 2012-02-09 02:38:05\n\n\n","torrent":{"xt":"urn:btih:7ba6d9e84e8635c2c0b758f6d7fc40edc53f1ec2","amp;dn":"Lady.Sonia.Cumming.Hard.With.Holly.XXXmegathor.avi","amp;tr":["udp%3A%2F%2Ftracker.openbittorrent.com%3A80","udp%3A%2F%2Fopen.demonii.com%3A1337","udp%3A%2F%2Ftracker.coppersurfer.tk%3A6969","udp%3A%2F%2Fexodus.desync.com%3A6969"],"infoHash":"7ba6d9e84e8635c2c0b758f6d7fc40edc53f1ec2","infoHashBuffer":{"type":"Buffer","data":[123,166,217,232,78,134,53,194,192,183,88,246,215,252,64,237,197,63,30,194]},"announce":[],"urlList":[]}}